# xmcd
#
# Track frame offsets:
#	150
#	13115
#	22326
#	31447
#	42176
#	54476
#	67423
#	77910
#	88995
#	98720
#	109280
#	118720
#	129908
#	141608
#	154418
#
# Disc length: 2207 seconds
#
# Revision: 0
# Processed by: cddbd v1.4PL0 Copyright (c) Steve Scherf et al.
# Submitted via: dBpowerAMP V4.0
#
DISCID=e0089d0f
DTITLE=Faron Young - It's four in the morning
DYEAR=1999
DGENRE=Country
TTITLE0=It's four in the morning
TTITLE1=Hello walls
TTITLE2=Heartache for a keepsake
TTITLE3=Memphis
TTITLE4=Country Girl
TTITLE5=Apartment#9
TTITLE6=I could never be ashamed of you
TTITLE7=Live fast love hard die young
TTITLE8=Alone with you
TTITLE9=Face to the wall
TTITLE10=Some of your memories
TTITLE11=Goin' steady
TTITLE12=Unmitigated girl
TTITLE13=Three day's
TTITLE14=Cryin time
EXTD=
EXTT0=
EXTT1=
EXTT2=
EXTT3=
EXTT4=
EXTT5=
EXTT6=
EXTT7=
EXTT8=
EXTT9=
EXTT10=
EXTT11=
EXTT12=
EXTT13=
EXTT14=
PLAYORDER=
